# xmcd
#
# Track frame offsets: 
#        150
#        22662
#        40272
#        58170
#
# Disc length: 1057 seconds
#
# Revision: 0
# Processed by: cddbd v1.5.1PL2 Copyright (c) Steve Scherf et al.
# Submitted via: ExactAudioCopy v0.95b2
#
DISCID=28041f04
DTITLE=Kym Rae - Just Be Good To Me CDS
DYEAR=1996
DGENRE=R&B
TTITLE0=Just Be Good To Me (Featuring Father MC)
TTITLE1=Just Be Good To Me (Instrumental)
TTITLE2=Just Be Good To Me (Just For You Mix)
TTITLE3=Just Be Good To Me (Intimate Mix)
EXTD=
EXTT0=
EXTT1=
EXTT2=
EXTT3=
PLAYORDER=
